<mxfile host="app.diagrams.net" modified="2021-03-10T20:50:19.489Z" agent="5.0 (Windows NT 10.0; Win64; x64) AppleWebKit/537.36 (KHTML, like Gecko) Chrome/89.0.4389.72 Safari/537.36 Edg/89.0.774.45" etag="zC4Ao8hWRes1u3fsVDpX" version="14.4.6" type="github">
  <diagram id="VyUCegC_j0L5VA7hjkUp" name="Page-1">
    <mxGraphModel dx="1026" dy="2300" grid="1" gridSize="10" guides="1" tooltips="1" connect="1" arrows="1" fold="1" page="1" pageScale="1" pageWidth="827" pageHeight="1169" math="0" shadow="0">
      <root>
        <mxCell id="0" />
        <mxCell id="1" parent="0" />
        <mxCell id="TvjCqYCJGpk7h-a7I60w-1" value="" style="edgeStyle=orthogonalEdgeStyle;rounded=0;orthogonalLoop=1;jettySize=auto;html=1;" edge="1" parent="1" source="TvjCqYCJGpk7h-a7I60w-2" target="TvjCqYCJGpk7h-a7I60w-4">
          <mxGeometry relative="1" as="geometry" />
        </mxCell>
        <mxCell id="TvjCqYCJGpk7h-a7I60w-2" value="def get_brightness()" style="shape=mxgraph.flowchart.terminator;strokeWidth=2;gradientColor=none;gradientDirection=north;fontStyle=0;html=1;" vertex="1" parent="1">
          <mxGeometry x="55" y="-800" width="180" height="70" as="geometry" />
        </mxCell>
        <mxCell id="TvjCqYCJGpk7h-a7I60w-3" value="" style="edgeStyle=orthogonalEdgeStyle;rounded=0;orthogonalLoop=1;jettySize=auto;html=1;" edge="1" parent="1" source="TvjCqYCJGpk7h-a7I60w-4" target="TvjCqYCJGpk7h-a7I60w-6">
          <mxGeometry relative="1" as="geometry" />
        </mxCell>
        <mxCell id="TvjCqYCJGpk7h-a7I60w-4" value="Klassen importieren" style="rounded=0;whiteSpace=wrap;html=1;" vertex="1" parent="1">
          <mxGeometry x="85" y="-710" width="120" height="60" as="geometry" />
        </mxCell>
        <mxCell id="TvjCqYCJGpk7h-a7I60w-5" value="" style="edgeStyle=orthogonalEdgeStyle;rounded=0;orthogonalLoop=1;jettySize=auto;html=1;" edge="1" parent="1" source="TvjCqYCJGpk7h-a7I60w-6">
          <mxGeometry relative="1" as="geometry">
            <mxPoint x="144.99999999999977" y="-490.0000000000002" as="targetPoint" />
          </mxGeometry>
        </mxCell>
        <mxCell id="TvjCqYCJGpk7h-a7I60w-6" value="Variablen deklarieren" style="rounded=0;whiteSpace=wrap;html=1;" vertex="1" parent="1">
          <mxGeometry x="85" y="-620" width="120" height="60" as="geometry" />
        </mxCell>
        <mxCell id="TvjCqYCJGpk7h-a7I60w-7" value="" style="edgeStyle=orthogonalEdgeStyle;rounded=0;orthogonalLoop=1;jettySize=auto;html=1;" edge="1" parent="1" target="TvjCqYCJGpk7h-a7I60w-8">
          <mxGeometry relative="1" as="geometry">
            <mxPoint x="144.99999999999977" y="-470.0000000000002" as="sourcePoint" />
          </mxGeometry>
        </mxCell>
        <mxCell id="TvjCqYCJGpk7h-a7I60w-8" value="Return brightness" style="ellipse;whiteSpace=wrap;html=1;rounded=0;" vertex="1" parent="1">
          <mxGeometry x="85" y="-426" width="120" height="80" as="geometry" />
        </mxCell>
        <mxCell id="TvjCqYCJGpk7h-a7I60w-9" value="&lt;span&gt;Helligkeitssensor messen&lt;/span&gt;" style="shape=process;whiteSpace=wrap;html=1;backgroundOutline=1;" vertex="1" parent="1">
          <mxGeometry x="50" y="-530" width="190" height="60" as="geometry" />
        </mxCell>
      </root>
    </mxGraphModel>
  </diagram>
</mxfile>
